<mxfile host="app.diagrams.net" agent="Mozilla/5.0 (Windows NT 10.0; Win64; x64) AppleWebKit/537.36 (KHTML, like Gecko) Chrome/140.0.0.0 Safari/537.36" version="28.2.3">
  <diagram name="Trang-1" id="mVOn-pY0Jo6DQulHvdcU">
    <mxGraphModel dx="1042" dy="562" grid="1" gridSize="10" guides="1" tooltips="1" connect="1" arrows="1" fold="1" page="1" pageScale="1" pageWidth="827" pageHeight="1169" math="0" shadow="0">
      <root>
        <mxCell id="0" />
        <mxCell id="1" parent="0" />
        <mxCell id="lBGUJYePpOVJ1CmkZKnR-2" style="edgeStyle=orthogonalEdgeStyle;rounded=0;orthogonalLoop=1;jettySize=auto;html=1;" edge="1" parent="1" source="lBGUJYePpOVJ1CmkZKnR-1" target="lBGUJYePpOVJ1CmkZKnR-3">
          <mxGeometry relative="1" as="geometry">
            <mxPoint x="275" y="210" as="targetPoint" />
          </mxGeometry>
        </mxCell>
        <mxCell id="lBGUJYePpOVJ1CmkZKnR-1" value="VÀO CỬA HÀNG&amp;nbsp;" style="ellipse;whiteSpace=wrap;html=1;" vertex="1" parent="1">
          <mxGeometry x="180" y="10" width="190" height="120" as="geometry" />
        </mxCell>
        <mxCell id="lBGUJYePpOVJ1CmkZKnR-4" style="edgeStyle=orthogonalEdgeStyle;rounded=0;orthogonalLoop=1;jettySize=auto;html=1;" edge="1" parent="1" source="lBGUJYePpOVJ1CmkZKnR-3" target="lBGUJYePpOVJ1CmkZKnR-5">
          <mxGeometry relative="1" as="geometry">
            <mxPoint x="275" y="310" as="targetPoint" />
          </mxGeometry>
        </mxCell>
        <mxCell id="lBGUJYePpOVJ1CmkZKnR-3" value="TÌM KIẾM MÓN ĐỒ&amp;nbsp;" style="rounded=0;whiteSpace=wrap;html=1;" vertex="1" parent="1">
          <mxGeometry x="215" y="180" width="120" height="60" as="geometry" />
        </mxCell>
        <mxCell id="lBGUJYePpOVJ1CmkZKnR-6" style="edgeStyle=orthogonalEdgeStyle;rounded=0;orthogonalLoop=1;jettySize=auto;html=1;" edge="1" parent="1" source="lBGUJYePpOVJ1CmkZKnR-5">
          <mxGeometry relative="1" as="geometry">
            <mxPoint x="440" y="340" as="targetPoint" />
          </mxGeometry>
        </mxCell>
        <mxCell id="lBGUJYePpOVJ1CmkZKnR-7" value="YES" style="edgeLabel;html=1;align=center;verticalAlign=middle;resizable=0;points=[];" vertex="1" connectable="0" parent="lBGUJYePpOVJ1CmkZKnR-6">
          <mxGeometry x="-0.2557" y="-2" relative="1" as="geometry">
            <mxPoint as="offset" />
          </mxGeometry>
        </mxCell>
        <mxCell id="lBGUJYePpOVJ1CmkZKnR-11" style="edgeStyle=orthogonalEdgeStyle;rounded=0;orthogonalLoop=1;jettySize=auto;html=1;" edge="1" parent="1" source="lBGUJYePpOVJ1CmkZKnR-5">
          <mxGeometry relative="1" as="geometry">
            <mxPoint x="140" y="340" as="targetPoint" />
          </mxGeometry>
        </mxCell>
        <mxCell id="lBGUJYePpOVJ1CmkZKnR-12" value="NO" style="edgeLabel;html=1;align=center;verticalAlign=middle;resizable=0;points=[];" vertex="1" connectable="0" parent="lBGUJYePpOVJ1CmkZKnR-11">
          <mxGeometry x="-0.1036" y="3" relative="1" as="geometry">
            <mxPoint x="1" as="offset" />
          </mxGeometry>
        </mxCell>
        <mxCell id="lBGUJYePpOVJ1CmkZKnR-5" value="KIỂM TRA MÓN ĐỒ CẦN TÌM&amp;nbsp;" style="rhombus;whiteSpace=wrap;html=1;" vertex="1" parent="1">
          <mxGeometry x="210" y="280" width="130" height="120" as="geometry" />
        </mxCell>
        <mxCell id="lBGUJYePpOVJ1CmkZKnR-32" style="edgeStyle=orthogonalEdgeStyle;rounded=0;orthogonalLoop=1;jettySize=auto;html=1;entryX=1;entryY=0.75;entryDx=0;entryDy=0;" edge="1" parent="1" source="lBGUJYePpOVJ1CmkZKnR-9" target="lBGUJYePpOVJ1CmkZKnR-27">
          <mxGeometry relative="1" as="geometry">
            <Array as="points">
              <mxPoint x="500" y="515" />
            </Array>
          </mxGeometry>
        </mxCell>
        <mxCell id="lBGUJYePpOVJ1CmkZKnR-9" value="THANH TOÁN" style="rounded=0;whiteSpace=wrap;html=1;" vertex="1" parent="1">
          <mxGeometry x="440" y="310" width="120" height="60" as="geometry" />
        </mxCell>
        <mxCell id="lBGUJYePpOVJ1CmkZKnR-23" style="edgeStyle=orthogonalEdgeStyle;rounded=0;orthogonalLoop=1;jettySize=auto;html=1;entryX=0;entryY=0.5;entryDx=0;entryDy=0;" edge="1" parent="1" source="lBGUJYePpOVJ1CmkZKnR-22" target="lBGUJYePpOVJ1CmkZKnR-3">
          <mxGeometry relative="1" as="geometry">
            <Array as="points">
              <mxPoint x="90" y="210" />
            </Array>
          </mxGeometry>
        </mxCell>
        <mxCell id="lBGUJYePpOVJ1CmkZKnR-24" value="YÊS" style="edgeLabel;html=1;align=center;verticalAlign=middle;resizable=0;points=[];" vertex="1" connectable="0" parent="lBGUJYePpOVJ1CmkZKnR-23">
          <mxGeometry x="0.2502" y="4" relative="1" as="geometry">
            <mxPoint as="offset" />
          </mxGeometry>
        </mxCell>
        <mxCell id="lBGUJYePpOVJ1CmkZKnR-29" style="edgeStyle=orthogonalEdgeStyle;rounded=0;orthogonalLoop=1;jettySize=auto;html=1;entryX=0.5;entryY=0;entryDx=0;entryDy=0;" edge="1" parent="1" source="lBGUJYePpOVJ1CmkZKnR-22" target="lBGUJYePpOVJ1CmkZKnR-27">
          <mxGeometry relative="1" as="geometry" />
        </mxCell>
        <mxCell id="lBGUJYePpOVJ1CmkZKnR-30" value="NO" style="edgeLabel;html=1;align=center;verticalAlign=middle;resizable=0;points=[];" vertex="1" connectable="0" parent="lBGUJYePpOVJ1CmkZKnR-29">
          <mxGeometry x="-0.1822" y="-2" relative="1" as="geometry">
            <mxPoint as="offset" />
          </mxGeometry>
        </mxCell>
        <mxCell id="lBGUJYePpOVJ1CmkZKnR-22" value="HỎI NHÂN VIÊN" style="rounded=0;whiteSpace=wrap;html=1;" vertex="1" parent="1">
          <mxGeometry x="20" y="300" width="120" height="80" as="geometry" />
        </mxCell>
        <mxCell id="lBGUJYePpOVJ1CmkZKnR-27" value="RỜI ĐI" style="rounded=0;whiteSpace=wrap;html=1;" vertex="1" parent="1">
          <mxGeometry x="20" y="470" width="120" height="60" as="geometry" />
        </mxCell>
      </root>
    </mxGraphModel>
  </diagram>
</mxfile>
